<svg id="Layer_1" data-name="Layer 1" xmlns="http://www.w3.org/2000/svg" viewBox="0 0 139.92 54.93"><defs><style>.cls-1,.cls-3{fill:#ff5000;}.cls-1{fill-rule:evenodd;}.cls-2{fill:#fff;}</style></defs><title>wso2-logo-for-screen</title><path class="cls-1" d="M124.17,63.57A19.63,19.63,0,1,0,104.54,44,19.67,19.67,0,0,0,124.17,63.57Z" transform="translate(-22.52 -21.51)"/><polygon class="cls-2" points="109.66 33.35 101.67 13.88 96.09 26.28 82.24 26.25 82.24 23.58 94.36 23.61 101.78 7.12 110.02 27.2 113.32 21.27 121.25 21.23 121.26 23.9 114.89 23.93 109.66 33.35"/><path class="cls-3" d="M77.53,24.15h1.64l-1.64,4.13V24.15Zm0,34.82a11.59,11.59,0,0,0,2.72,3.27,13.26,13.26,0,0,0,17-.89A11.8,11.8,0,0,0,101,52.59a8.58,8.58,0,0,0-3-7,28.89,28.89,0,0,0-6.31-3.91l-1.14-.54-1.08-.48a45.59,45.59,0,0,1-5.06-2.93,4.64,4.64,0,0,1-2-4,5.33,5.33,0,0,1,2-4.31,7.49,7.49,0,0,1,4.89-1.65,6.63,6.63,0,0,1,3.2.72,8.15,8.15,0,0,1,2.52,2.34l.42.67A2.32,2.32,0,0,1,96,32l3.55-2.28a12.42,12.42,0,0,0-4.37-4.67,10.57,10.57,0,0,0-5.61-1.59,12.1,12.1,0,0,0-8.35,2.89,9.42,9.42,0,0,0-3.25,7.41,7.91,7.91,0,0,0,2.94,6.58,30.49,30.49,0,0,0,6.32,3.82l.72.36.72.3A45.53,45.53,0,0,1,94.17,48a5.22,5.22,0,0,1,2.28,4.62,7.82,7.82,0,0,1-2.31,5.8,7.94,7.94,0,0,1-5.86,2.32,7.22,7.22,0,0,1-5.17-1.93,10.51,10.51,0,0,1-2.88-5.53l-2.7.83ZM38.1,54.16,50.67,22,62.52,54.23,74.31,24.15h3.22v4.13l-15.15,38L50.54,34.18,37.91,66.29,22.52,24.15H27.4l10.7,30Zm39.43,0-1.65.5A16.12,16.12,0,0,0,77.53,59Z" transform="translate(-22.52 -21.51)"/><path d="M124.27,21.51a22.37,22.37,0,0,1,16.12,6.54A21.83,21.83,0,0,1,147,44.18a22.52,22.52,0,0,1-22.68,22.69h0v-4.2a18.42,18.42,0,0,0,9.2-2.43,17.35,17.35,0,0,0,6.66-6.67,18.64,18.64,0,0,0,2.4-9.39,18.25,18.25,0,0,0-2.4-9.3,17.81,17.81,0,0,0-6.73-6.64,18.21,18.21,0,0,0-9.13-2.5Zm-.3,0h.3v4.23h-.09a17.71,17.71,0,0,0-9.09,2.5,18.08,18.08,0,0,0-6.7,6.72,18.75,18.75,0,0,0-2.4,9.42,18.1,18.1,0,0,0,18.19,18.29h.09v4.2a22.08,22.08,0,0,1-16.16-6.57,21.65,21.65,0,0,1-6.61-15.92,23.21,23.21,0,0,1,3-11.54A22.23,22.23,0,0,1,124,21.51Z" transform="translate(-22.52 -21.51)"/><path d="M148.51,42.81a11.62,11.62,0,0,1,3.23-.45A9.91,9.91,0,0,1,162,52.3a10.88,10.88,0,0,1-1.35,5.3,38.59,38.59,0,0,1-5.27,6.69l-8.26,8.94h15.33v3.21H139.88l12.69-13.73a40.39,40.39,0,0,0,5-6.13,8.17,8.17,0,0,0,1.16-4.2,6.52,6.52,0,0,0-2.08-4.83,7.18,7.18,0,0,0-5.13-2,7.43,7.43,0,0,0-3.14.62c.08-.81.12-1.62.12-2.45C148.53,43.41,148.52,43.1,148.51,42.81Z" transform="translate(-22.52 -21.51)"/></svg>